<?xml version="1.0" ?><!DOCTYPE svg  PUBLIC '-//W3C//DTD SVG 1.1//EN'  'http://www.w3.org/Graphics/SVG/1.1/DTD/svg11.dtd'><svg viewBox="0 0 512 512" xmlns="http://www.w3.org/2000/svg" xmlns:xlink="http://www.w3.org/1999/xlink"><style>:root>svg{display:none}:root>svg:target{display:block}</style><svg fill="none" stroke="currentColor" stroke-linecap="round" stroke-linejoin="round" stroke-width="2" viewBox="0 0 24 24" id="award" xmlns="http://www.w3.org/2000/svg"><circle cx="12" cy="8" r="7"/><path d="M8.21 13.89L7 23l5-3 5 3-1.21-9.12"/></svg><svg viewBox="0 0 96 96" id="bar" xmlns="http://www.w3.org/2000/svg"><path d="M80 4c-6.627 0-12 5.373-12 12v64c0 6.627 5.373 12 12 12s12-5.373 12-12V16c0-6.627-5.373-12-12-12zm4 76a4 4 0 01-8 0V16a4 4 0 018 0v64zM48 28c-6.627 0-12 5.373-12 12v40c0 6.627 5.373 12 12 12s12-5.373 12-12V40c0-6.627-5.373-12-12-12zm4 52a4 4 0 01-8 0V40a4 4 0 018 0v40zM16 52C9.373 52 4 57.373 4 64v16c0 6.627 5.373 12 12 12s12-5.373 12-12V64c0-6.627-5.373-12-12-12zm4 28a4 4 0 01-8 0V64a4 4 0 018 0v16z"/></svg><svg fill="currentColor" viewBox="0 0 96 96" id="breifcase" xmlns="http://www.w3.org/2000/svg"><path d="M80 24H68v-4c0-6.63-5.37-12-12-12H40c-6.63 0-12 5.37-12 12v4H16C9.373 24 4 29.373 4 36v40c0 6.627 5.373 12 12 12h64c6.627 0 12-5.373 12-12V36c0-6.627-5.373-12-12-12zm-12 8v48H28V32h40zM36 20c0-2.21 1.79-4 4-4h16c2.21 0 4 1.79 4 4v4H36v-4zM12 76V36c0-2.21 1.79-4 4-4h4v48h-4c-2.21 0-4-1.79-4-4zm72 0c0 2.21-1.79 4-4 4h-4V32h4c2.21 0 4 1.79 4 4v40z"/></svg><svg fill="none" stroke="currentColor" stroke-linecap="round" stroke-linejoin="round" stroke-width="2" viewBox="0 0 24 24" id="calendar" xmlns="http://www.w3.org/2000/svg"><rect height="18" rx="2" ry="2" width="18" x="3" y="4"/><path d="M16 2v4M8 2v4M3 10h18"/></svg><svg viewBox="0 0 87 89" id="charity" xmlns="http://www.w3.org/2000/svg"><defs><clipPath id="aea"><path d="M0 0h87v89H0z"/></clipPath></defs><g data-name="Group 42" clip-path="url(#aea)"><g data-name="Group 37"><g data-name="Group 36"><path data-name="Path 36" d="M61.632 12.095c-4.253-4.007-11.54-4.922-18.132 1.671-6.583-6.586-13.88-5.678-18.132-1.674a12.009 12.009 0 00-.265 17.24l18.4 18.4 18.4-18.4a12.009 12.009 0 00-.271-17.237zm-2.02 14.952L43.5 43.159 27.389 27.051a8.771 8.771 0 01.2-12.6 8.417 8.417 0 015.823-2.262c4.628 0 6.709 2.766 10.092 6.15 3.293-3.293 5.413-6.15 10.092-6.15a8.443 8.443 0 015.826 2.259 8.77 8.77 0 01.19 12.6z" fill="currentColor"/></g></g><g data-name="Group 39"><g data-name="Group 38"><path data-name="Path 37" d="M79.987 12.186a5.5 5.5 0 00-5.494 4.964l-2.046 20.2a5.188 5.188 0 00-2.592 1.39L53.534 53.934a10.974 10.974 0 00-3.571 8.015v18.1h19.389v-8.518a4.892 4.892 0 011.554-3.545L83.17 55.609a8.038 8.038 0 002.34-5.688V17.709a5.53 5.53 0 00-5.523-5.523zm2.291 37.735a4.825 4.825 0 01-1.406 3.416l-12.224 12.34a8.092 8.092 0 00-2.527 5.856v5.287H53.195V61.968a7.72 7.72 0 012.53-5.649l16.374-15.25a2.137 2.137 0 012.97 0 2.093 2.093 0 01.617 1.487 2.068 2.068 0 01-.562 1.432L62.518 55.421l2.172 2.391 12.664-11.488a5.328 5.328 0 000-7.539 5.156 5.156 0 00-1.69-1.141l2.042-20.167a2.292 2.292 0 014.573.229v32.215z" fill="currentColor"/></g></g><g data-name="Group 41"><g data-name="Group 40"><path data-name="Path 38" d="M33.466 53.934L17.144 38.74a5.163 5.163 0 00-2.592-1.39l-2.046-20.2a5.522 5.522 0 00-11.016.559v32.212a8.025 8.025 0 002.34 5.684l12.26 12.372a4.9 4.9 0 011.554 3.548v8.518h19.393v-18.1a10.968 10.968 0 00-3.571-8.009zm.339 22.883H20.879V71.53a8.1 8.1 0 00-2.527-5.856L6.127 53.337a4.825 4.825 0 01-1.406-3.416V17.709a2.292 2.292 0 014.569-.232l2.043 20.161a5.33 5.33 0 00-1.687 8.68l12.665 11.488 2.172-2.391-12.607-11.438a2.048 2.048 0 01-.562-1.432 2.088 2.088 0 01.617-1.487 2.137 2.137 0 012.97 0l16.374 15.25a7.72 7.72 0 012.53 5.649v14.86z" fill="currentColor"/></g></g></g></svg><svg viewBox="0 0 87 89" id="company-vision" xmlns="http://www.w3.org/2000/svg"><defs><clipPath id="afa"><path d="M0 0h87v89H0z"/></clipPath></defs><g data-name="iPhone 13, 12 Pro Max – 1"><g data-name="Group 32" clip-path="url(#afa)"><g data-name="12 Corporate Network Profile, Company Profile, Computer Reference Profile"><path data-name="Path 31" d="M78 6.367h-4.774v3.184H78a4.776 4.776 0 014.776 4.776V68.45A4.776 4.776 0 0178 73.226H7.959a4.776 4.776 0 01-4.775-4.776V14.327A4.776 4.776 0 017.96 9.551h4.776V6.367H7.959A7.959 7.959 0 000 14.327V68.45a7.959 7.959 0 007.959 7.959h25.725a15.919 15.919 0 01-2.69 9.551h-3.932v3.184H58.9v-3.183h-3.933a15.919 15.919 0 01-2.69-9.551H78a7.959 7.959 0 007.959-7.959V14.327A7.959 7.959 0 0078 6.367zM51.29 85.961H34.671A18.163 18.163 0 0036.9 76.41h12.161a18.163 18.163 0 002.229 9.551zM12.735 15.919v-3.184H7.959a1.592 1.592 0 00-1.592 1.592v47.756a1.592 1.592 0 001.592 1.592H78a1.592 1.592 0 001.592-1.592V14.327A1.592 1.592 0 0078 12.735h-4.774v3.184h3.184v44.572h-6.368V1.592A1.592 1.592 0 0068.45 0H17.511a1.592 1.592 0 00-1.592 1.592v58.9H9.551V15.919zM19.1 3.184h47.759v57.307H19.1zm17.513 66.858v-3.183h12.735v3.184zm6.367-47.756a6.367 6.367 0 10-6.367-6.367 6.367 6.367 0 006.367 6.367zm0-9.551a3.184 3.184 0 11-3.18 3.184 3.184 3.184 0 013.18-3.184zm-6.367 22.286h-3.184v-1.592a9.551 9.551 0 1119.1 0v1.592h-3.181v-1.592a6.367 6.367 0 10-12.735 0zM25.47 41.389h35.021v3.184H25.47zm0 9.551h35.021v3.184H25.47z" fill="currentColor"/></g></g></g></svg><svg fill="none" stroke="currentColor" stroke-linecap="round" stroke-linejoin="round" stroke-width="2" viewBox="0 0 24 24" id="cross" xmlns="http://www.w3.org/2000/svg"><path d="M18 6L6 18M6 6l12 12"/></svg><svg viewBox="0 0 24 24" id="decor" xmlns="http://www.w3.org/2000/svg"><path d="M19.016 21.18c-1.514-.122-2.666.466-3.457 1.762-.79 1.297-1.763 1.45-2.915.462-1.153-.989-2.43-1.191-3.832-.607-1.402.584-2.279.137-2.63-1.34-.352-1.478-1.266-2.392-2.744-2.744-1.477-.351-1.924-1.228-1.34-2.63.584-1.402.382-2.68-.607-3.832-.988-1.153-.834-2.125.462-2.916 1.297-.791 1.884-1.943 1.761-3.457-.122-1.514.574-2.21 2.088-2.088 1.513.122 2.666-.465 3.456-1.761.791-1.297 1.763-1.45 2.916-.462s2.43 1.191 3.832.607c1.402-.584 2.278-.137 2.63 1.34.351 1.478 1.266 2.392 2.743 2.744 1.477.351 1.924 1.228 1.34 2.63-.584 1.402-.381 2.68.607 3.832.989 1.153.835 2.125-.462 2.916-1.296.791-1.883 1.943-1.761 3.457.122 1.514-.574 2.21-2.087 2.088z" fill="#ff9600"/></svg><svg fill="none" stroke="currentColor" stroke-linecap="round" stroke-linejoin="round" stroke-width="2" viewBox="0 0 24 24" id="email" xmlns="http://www.w3.org/2000/svg"><path d="M4 4h16c1.1 0 2 .9 2 2v12c0 1.1-.9 2-2 2H4c-1.1 0-2-.9-2-2V6c0-1.1.9-2 2-2z"/><path d="M22 6l-10 7L2 6"/></svg><svg fill="none" stroke="currentColor" stroke-linecap="round" stroke-linejoin="round" stroke-width="2" viewBox="0 0 24 24" id="eye" xmlns="http://www.w3.org/2000/svg"><path d="M1 12s4-8 11-8 11 8 11 8-4 8-11 8-11-8-11-8z"/><circle cx="12" cy="12" r="3"/></svg><svg viewBox="0 0 24 24" id="facebook" xmlns="http://www.w3.org/2000/svg"><path d="M15.997 3.985h2.191V.169C17.81.117 16.51 0 14.996 0c-3.159 0-5.323 1.987-5.323 5.639V9H6.187v4.266h3.486V24h4.274V13.267h3.345l.531-4.266h-3.877V6.062c.001-1.233.333-2.077 2.051-2.077z" data-original="#000000" class="akactive-path" data-old_color="#000000" fill="currentColor"/></svg><svg fill="none" stroke="currentColor" stroke-linecap="round" stroke-linejoin="round" stroke-width="2" viewBox="0 0 24 24" id="globe" xmlns="http://www.w3.org/2000/svg"><circle cx="12" cy="12" r="10"/><path d="M2 12h20M12 2a15.3 15.3 0 014 10 15.3 15.3 0 01-4 10 15.3 15.3 0 01-4-10 15.3 15.3 0 014-10z"/></svg><svg viewBox="0 0 96 96" id="heart" xmlns="http://www.w3.org/2000/svg"><path d="M87.598 15.029c-9.373-9.373-24.568-9.373-33.94 0L48 20.686l-5.657-5.656c-9.373-9.373-24.569-9.373-33.941 0-9.373 9.373-9.373 24.568 0 33.941l5.657 5.654L48 88.566l33.941-33.941 5.656-5.654c9.374-9.373 9.374-24.569.001-33.942zM70.627 54.627L48 77.254 25.374 54.627 14.061 43.314c-6.249-6.248-6.249-16.379 0-22.629 6.249-6.248 16.379-6.248 22.627 0L48 32l11.314-11.314c6.248-6.248 16.379-6.248 22.627 0 6.248 6.25 6.248 16.379 0 22.629L70.627 54.627z"/></svg><svg fill="none" stroke="currentColor" stroke-linecap="round" stroke-linejoin="round" stroke-width="2" viewBox="0 0 24 24" id="help" xmlns="http://www.w3.org/2000/svg"><circle cx="12" cy="12" r="10"/><path d="M9.09 9a3 3 0 015.83 1c0 2-3 3-3 3M12 17h0"/></svg><svg fill="none" stroke="currentColor" stroke-linecap="round" stroke-linejoin="round" stroke-width="2" viewBox="0 0 24 24" id="home" xmlns="http://www.w3.org/2000/svg"><path d="M3 9l9-7 9 7v11a2 2 0 01-2 2H5a2 2 0 01-2-2z"/><path d="M9 22V12h6v10"/></svg><svg viewBox="0 0 97.395 97.395" id="instagram" xmlns="http://www.w3.org/2000/svg"><path d="M12.501 0h72.393c6.875 0 12.5 5.09 12.5 12.5v72.395c0 7.41-5.625 12.5-12.5 12.5H12.501C5.624 97.395 0 92.305 0 84.895V12.5C0 5.09 5.624 0 12.501 0zm58.447 10.821a4.395 4.395 0 00-4.383 4.385v10.495a4.396 4.396 0 004.383 4.385h11.008a4.398 4.398 0 004.385-4.385V15.206a4.397 4.397 0 00-4.385-4.385H70.948zm15.439 30.367h-8.572a28.486 28.486 0 011.25 8.355c0 16.2-13.556 29.332-30.275 29.332-16.718 0-30.272-13.132-30.272-29.332 0-2.904.438-5.708 1.25-8.355h-8.945v41.141a3.884 3.884 0 003.872 3.872h67.822a3.883 3.883 0 003.872-3.872V41.188h-.002zM48.789 29.533c-10.802 0-19.56 8.485-19.56 18.953s8.758 18.953 19.56 18.953c10.803 0 19.562-8.485 19.562-18.953s-8.758-18.953-19.562-18.953z" data-original="#000000" class="apactive-path" data-old_color="#000000" fill="currentColor"/></svg><svg fill="currentColor" viewBox="0 0 96 96" id="left" xmlns="http://www.w3.org/2000/svg"><path d="M84 44H21.656l21.456-21.456a4.001 4.001 0 00-5.657-5.657L9.172 45.171a3.996 3.996 0 00-.498.61c-.067.101-.114.21-.171.315-.067.124-.142.242-.196.373-.056.135-.088.276-.129.416-.032.111-.075.217-.098.331A3.98 3.98 0 008 48l.001.008c0 .259.027.519.078.774.024.121.069.232.104.349.039.133.07.268.123.397.058.139.136.265.208.396.054.098.096.198.159.292.147.221.314.427.501.614l28.282 28.281a4.001 4.001 0 005.657-5.657L21.657 52H84a4 4 0 000-8z"/></svg><svg fill="none" stroke="currentColor" stroke-linecap="round" stroke-linejoin="round" stroke-width="2" viewBox="0 0 24 24" id="list" xmlns="http://www.w3.org/2000/svg"><path d="M8 6h13M8 12h13M8 18h13M3 6h0M3 12h0M3 18h0"/></svg><svg fill="none" stroke="currentColor" stroke-linecap="round" stroke-linejoin="round" stroke-width="2" viewBox="0 0 24 24" id="log_in" xmlns="http://www.w3.org/2000/svg"><path d="M15 3h4a2 2 0 012 2v14a2 2 0 01-2 2h-4M10 17l5-5-5-5M15 12H3"/></svg><svg fill="currentColor" viewBox="0 0 129 169" id="nurse" xmlns="http://www.w3.org/2000/svg"><defs><clipPath id="ata"><path d="M0 0h129v169H0z"/></clipPath></defs><g data-name="iPhone 13, 12 Pro Max – 1"><g data-name="Group 31" clip-path="url(#ata)"><g data-name="Group 30"><g data-name="Group 1"><path data-name="Path 1" d="M21.275 164.073H3.039a3.04 3.04 0 010-6.079h18.236a3.04 3.04 0 110 6.079z"/></g><g data-name="Group 2"><path data-name="Path 2" d="M123.849 164.098h-18.236a3.04 3.04 0 110-6.079h18.236a3.04 3.04 0 010 6.079z"/></g><g data-name="Group 3"><path data-name="Path 3" d="M123.848 164.098a3.041 3.041 0 01-3.03-2.848c-.47-7.422-.92-14.114-1.613-20.883a3.041 3.041 0 016.051-.62c.7 6.881 1.155 13.634 1.629 21.117a3.045 3.045 0 01-2.837 3.228c-.072.003-.135.006-.2.006z"/></g><g data-name="Group 4"><path data-name="Path 4" d="M3.042 164.073c-.064 0-.128 0-.195-.006a3.04 3.04 0 01-2.842-3.225c.45-7.148.912-14.142 1.629-21.1a3.039 3.039 0 016.045.623c-.7 6.845-1.164 13.771-1.608 20.856a3.037 3.037 0 01-3.029 2.852z"/></g><g data-name="Group 5"><path data-name="Path 5" d="M36.954 46.133a3.038 3.038 0 01-2.854-1.994L24.001 16.581a3.04 3.04 0 115.708-2.091l10.1 27.558a3.038 3.038 0 01-1.808 3.9 3.072 3.072 0 01-1.046.185z"/></g><g data-name="Group 6"><path data-name="Path 6" d="M36.959 46.133a3.04 3.04 0 01-1.126-5.863 74.188 74.188 0 0155.228 0 3.039 3.039 0 11-2.255 5.644 68.138 68.138 0 00-50.72 0 3.008 3.008 0 01-1.125.219z"/></g><g data-name="Group 7"><path data-name="Path 7" d="M89.93 46.132a3.047 3.047 0 01-2.854-4.088l10.106-27.557a3.038 3.038 0 115.7 2.091l-10.1 27.558a3.042 3.042 0 01-2.852 1.996z"/></g><g data-name="Group 8"><path data-name="Path 8" d="M104.975 85.896a3.035 3.035 0 01-2.991-2.529c-.787-4.6-1.2-9.319-1.608-13.878-.7-7.86-1.352-15.285-3.729-22.369a3.042 3.042 0 015.769-1.932c2.6 7.765 3.325 15.9 4.018 23.764.4 4.437.8 9.027 1.544 13.391a3.035 3.035 0 01-2.483 3.507 2.742 2.742 0 01-.517.046z"/></g><g data-name="Group 9"><path data-name="Path 9" d="M21.913 85.896a2.9 2.9 0 01-.511-.043 3.039 3.039 0 01-2.486-3.5c.742-4.368 1.152-8.951 1.547-13.385.7-7.86 1.428-15.99 4.012-23.764a3.04 3.04 0 015.769 1.915c-2.359 7.101-3.024 14.526-3.726 22.386-.407 4.553-.827 9.258-1.611 13.862a3.041 3.041 0 01-2.994 2.529z"/></g><g data-name="Group 10"><path data-name="Path 10" d="M39.818 67.154a3.04 3.04 0 01-.313-6.063 96.734 96.734 0 0041.533-14.479 3.039 3.039 0 113.258 5.13A102.85 102.85 0 0140.141 67.13a2.3 2.3 0 01-.322.021z"/></g><g data-name="Group 11"><path data-name="Path 11" d="M32.394 67.532a75.918 75.918 0 01-8.677-.5 3.038 3.038 0 01.7-6.036 70.246 70.246 0 0015.1.094 3.04 3.04 0 01.62 6.048 76.584 76.584 0 01-7.743.394z"/></g><g data-name="Group 12"><path data-name="Path 12" d="M39.131 72.918a3.04 3.04 0 01-3.039-3.039 27.278 27.278 0 01.76-6.395l5.927 1.356-.018.079a21.012 21.012 0 00-.59 4.96 3.04 3.04 0 01-3.039 3.039z"/></g><g data-name="Group 13"><path data-name="Path 13" d="M87.758 72.918a3.04 3.04 0 01-3.039-3.036 41.492 41.492 0 00-.663-7.331 3.042 3.042 0 015.986-1.082 47.856 47.856 0 01.757 8.407 3.039 3.039 0 01-3.039 3.042z"/></g><g data-name="Group 14"><path data-name="Path 14" d="M15.909 107.259a3.04 3.04 0 01-2.839-4.124 118.877 118.877 0 005.851-20.832 3.04 3.04 0 015.978 1.1 125.026 125.026 0 01-6.152 21.9 3.037 3.037 0 01-2.838 1.956z"/></g><g data-name="Group 15"><path data-name="Path 15" d="M110.981 107.259a3.044 3.044 0 01-2.839-1.954 124.607 124.607 0 01-6.152-21.9 3.04 3.04 0 015.978-1.1 118.918 118.918 0 005.851 20.828 3.038 3.038 0 01-2.839 4.127z"/></g><g data-name="Group 16"><path data-name="Path 16" d="M67.407 145.348a3.037 3.037 0 01-2.735-4.358l15.493-32.108a3.039 3.039 0 115.474 2.641l-15.494 32.108a3.043 3.043 0 01-2.738 1.717z"/></g><g data-name="Group 17"><path data-name="Path 17" d="M59.483 145.348a3.036 3.036 0 01-2.738-1.717l-15.491-32.107a3.039 3.039 0 015.474-2.641l15.49 32.107a3.037 3.037 0 01-2.735 4.358z"/></g><g data-name="Group 18"><path data-name="Path 18" d="M103.778 121.955a3.062 3.062 0 01-.717-.085 164.517 164.517 0 00-16.8-3.149 3.039 3.039 0 11.808-6.024 170.747 170.747 0 0117.421 3.264 3.04 3.04 0 01-.714 5.994z"/></g><g data-name="Group 19"><path data-name="Path 19" d="M23.111 121.954a3.041 3.041 0 01-.711-6 171.27 171.27 0 0117.421-3.259 3.039 3.039 0 01.808 6.024 164.884 164.884 0 00-16.8 3.149 2.815 2.815 0 01-.718.086z"/></g><g data-name="Group 20"><path data-name="Path 20" d="M95.572 131.777a3.027 3.027 0 01-2.51-1.325l-12.675-18.537a3.04 3.04 0 015.018-3.431l12.674 18.537a3.041 3.041 0 01-2.507 4.757z"/></g><g data-name="Group 21"><path data-name="Path 21" d="M86.223 134.121a3.039 3.039 0 01-.732-5.984l9.343-2.343a3.041 3.041 0 011.477 5.9l-9.343 2.343a3.114 3.114 0 01-.745.084z"/></g><g data-name="Group 22"><path data-name="Path 22" d="M40.663 134.12a3.1 3.1 0 01-.742-.091l-9.343-2.344a3.041 3.041 0 011.477-5.9l9.343 2.35a3.039 3.039 0 01-.736 5.987z"/></g><g data-name="Group 23"><path data-name="Path 23" d="M31.315 131.778a3.037 3.037 0 01-2.5-4.753l12.669-18.538a3.04 3.04 0 115.018 3.431l-12.674 18.538a3.045 3.045 0 01-2.513 1.322z"/></g><g data-name="Group 24"><path data-name="Path 24" d="M4.661 143.095a2.817 2.817 0 01-.316-.015 3.036 3.036 0 01-2.71-3.336 27.4 27.4 0 0120.762-23.781 3.04 3.04 0 111.435 5.908 21.317 21.317 0 00-16.148 18.5 3.039 3.039 0 01-3.023 2.724z"/></g><g data-name="Group 25"><path data-name="Path 25" d="M122.226 143.097a3.041 3.041 0 01-3.021-2.726 21.31 21.31 0 00-16.148-18.5 3.04 3.04 0 011.432-5.908 27.409 27.409 0 0120.764 23.782 3.038 3.038 0 01-2.714 3.334c-.106.009-.21.015-.313.015z"/></g><g data-name="Group 26"><path data-name="Path 26" d="M15.909 107.26a3.041 3.041 0 01-1.03-5.9 143.582 143.582 0 0119.3-5.453 3.04 3.04 0 011.24 5.951 138.088 138.088 0 00-18.485 5.222 2.955 2.955 0 01-1.027.182z"/></g><g data-name="Group 27"><path data-name="Path 27" d="M110.981 107.26a3 3 0 01-1.03-.182 137.568 137.568 0 00-18.485-5.222 3.042 3.042 0 011.243-5.955 144.259 144.259 0 0119.305 5.456 3.041 3.041 0 01-1.033 5.9z"/></g><g data-name="Group 28"><path data-name="Path 28" d="M63.273 107.071a21.748 21.748 0 01-13.4-4.7c-8.541-6.613-13.565-18.442-13.783-32.447a3.04 3.04 0 116.079-.1c.088 5.747 1.383 19.959 11.425 27.74 7.31 5.665 16.9 4.209 23.315-3.538 6.264-7.565 7.7-17.336 7.808-24.2a3.04 3.04 0 013.038-2.985h.049a3.039 3.039 0 012.986 3.083c-.122 7.841-1.818 19.06-9.2 27.986-4.99 6.031-11.658 9.161-18.317 9.161z"/></g><g data-name="Group 29"><path data-name="Path 29" d="M26.856 18.571a3.039 3.039 0 01-1.729-5.541C36.302 5.326 47.62.995 58.765.162c12.091-.912 24.582 2.027 36.123 8.48 2.462 1.377 4.744 2.924 6.869 4.389a3.038 3.038 0 11-3.45 5c-2.009-1.386-4.158-2.842-6.389-4.091a58.3 58.3 0 00-32.7-7.723c-10.057.759-20.362 4.732-30.639 11.816a3 3 0 01-1.723.538z"/></g><path data-name="Path 30" d="M66.485 16.691h6.076v6.079h-6.076v6.079h-6.078v-6.08h-6.079v-6.078h6.079v-6.075h6.079z"/></g></g></g></svg><svg viewBox="0 0 96 96" id="paper" xmlns="http://www.w3.org/2000/svg"><path d="M76 0H20C13.37 0 8 5.37 8 12v72c0 6.63 5.37 12 12 12h56c6.63 0 12-5.37 12-12V12c0-6.63-5.37-12-12-12zm4 84c0 2.21-1.79 4-4 4H20c-2.21 0-4-1.79-4-4V12c0-2.21 1.79-4 4-4h56c2.21 0 4 1.79 4 4v72z"/><path d="M68 72a4 4 0 01-4 4H32a4 4 0 010-8h32a4 4 0 014 4zM68 56a4 4 0 01-4 4H32a4 4 0 010-8h32a4 4 0 014 4zM68 40a4 4 0 01-4 4H32a4 4 0 010-8h32a4 4 0 014 4zM52 24a4 4 0 01-4 4H32a4 4 0 010-8h16a4 4 0 014 4z"/></svg><svg fill="currentCOlor" viewBox="0 0 96 96" id="password" xmlns="http://www.w3.org/2000/svg"><path d="M80 44h-8V28C72 14.745 61.255 4 48 4S24 14.745 24 28v8h8v-8c0-8.836 7.164-16 16-16s16 7.164 16 16v16H16C9.37 44 4 49.37 4 56v24c0 6.63 5.37 12 12 12h64c6.63 0 12-5.37 12-12V56c0-6.63-5.37-12-12-12zm4 36c0 2.21-1.79 4-4 4H16c-2.21 0-4-1.79-4-4V56c0-2.21 1.79-4 4-4h64c2.21 0 4 1.79 4 4v24z"/></svg><svg fill="none" stroke="currentColor" stroke-linecap="round" stroke-linejoin="round" stroke-width="2" viewBox="0 0 24 24" id="phone" xmlns="http://www.w3.org/2000/svg"><path d="M22 16.92v3a2 2 0 01-2.18 2 19.79 19.79 0 01-8.63-3.07 19.5 19.5 0 01-6-6 19.79 19.79 0 01-3.07-8.67A2 2 0 014.11 2h3a2 2 0 012 1.72 12.84 12.84 0 00.7 2.81 2 2 0 01-.45 2.11L8.09 9.91a16 16 0 006 6l1.27-1.27a2 2 0 012.11-.45 12.84 12.84 0 002.81.7A2 2 0 0122 16.92z"/></svg><svg fill="none" stroke="currentColor" stroke-linecap="round" stroke-linejoin="round" stroke-width="2" viewBox="0 0 24 24" id="pin" xmlns="http://www.w3.org/2000/svg"><path d="M21 10c0 7-9 13-9 13s-9-6-9-13a9 9 0 0118 0z"/><circle cx="12" cy="10" r="3"/></svg><svg viewBox="0 0 256 256" id="pin-second" xmlns="http://www.w3.org/2000/svg"><path d="M128 1.964c-54.72 0-99.078 44.36-99.078 99.078 0 24.429 8.881 46.754 23.538 64.03L128 254.035l75.538-88.967c14.656-17.273 23.537-39.6 23.537-64.03C227.078 46.323 182.72 1.964 128 1.964zm0 136.413c-22.504 0-40.746-18.242-40.746-40.746 0-22.505 18.242-40.746 40.746-40.746s40.746 18.241 40.746 40.746c0 22.504-18.242 40.746-40.746 40.746z" fill="#000" stroke-width="0" stroke-miterlimit="10" style="stroke:none;stroke-width:1;stroke-dasharray:none;stroke-linecap:butt;stroke-linejoin:miter;stroke-miterlimit:10;fill:#000;fill-rule:nonzero;opacity:1"/></svg><svg fill="currentColor" viewBox="0 0 96 96" id="right" xmlns="http://www.w3.org/2000/svg"><path d="M12 52h62.344L52.888 73.456a4 4 0 105.657 5.656l28.283-28.284c.186-.186.352-.391.498-.609.067-.101.114-.21.172-.315.066-.124.142-.242.195-.373.057-.135.089-.275.129-.415.033-.111.076-.217.099-.331.052-.26.079-.522.079-.785l-.001-.009a4.032 4.032 0 00-.078-.774c-.024-.12-.069-.231-.104-.349-.039-.133-.069-.268-.123-.397-.058-.139-.136-.265-.208-.396-.054-.098-.097-.198-.159-.292a3.94 3.94 0 00-.501-.614L58.544 16.888a4.001 4.001 0 00-5.657 5.657L74.343 44H12a4 4 0 000 8z"/></svg><svg viewBox="0 0 87 89" id="search2" xmlns="http://www.w3.org/2000/svg"><defs><clipPath id="baa"><path d="M0 0h87v89H0z"/></clipPath></defs><g data-name="Group 35" clip-path="url(#baa)"><g data-name="Group 34"><g data-name="Group 33" fill="currentColor"><path data-name="Path 32" d="M75.069 52.186a30.56 30.56 0 10-53.837-19.8q0 .372.009.742a1.608 1.608 0 103.216-.078q-.008-.331-.008-.664A27.343 27.343 0 1172.264 50.51a17.557 17.557 0 00-3.3-1.188 24.263 24.263 0 006.956-16.938 23.884 23.884 0 00-2.533-10.765 1.609 1.609 0 00-2.878 1.438 20.694 20.694 0 012.191 9.327 21.024 21.024 0 01-6.75 15.381 14.5 14.5 0 00-6.343-9.168 8.9 8.9 0 001.147-4.378v-3.673a8.961 8.961 0 10-17.923 0v3.673a8.9 8.9 0 001.144 4.373 14.4 14.4 0 00-6.344 9.157 20.907 20.907 0 0123.494-34.08 1.609 1.609 0 101.438-2.878 23.88 23.88 0 00-10.77-2.534 24.126 24.126 0 00-1.7 48.193 17.672 17.672 0 00-1.693 3.069 27.369 27.369 0 01-20.263-13.415 1.608 1.608 0 00-2.781 1.615 30.648 30.648 0 001.689 2.589L24.3 53.052a4.846 4.846 0 00-5.492.943l-17.4 17.4a4.831 4.831 0 000 6.824l4.552 4.548a4.835 4.835 0 006.824 0l17.4-17.4a4.846 4.846 0 00.943-5.492l2.743-2.742a30.5 30.5 0 0013.523 5.495 17.694 17.694 0 1027.676-10.442zm-47.16 10.907l-17.4 17.4a1.618 1.618 0 01-2.275 0l-4.549-4.55a1.61 1.61 0 010-2.275l17.4-17.4a1.618 1.618 0 012.275 0l4.549 4.551a1.618 1.618 0 010 2.275zm1.137-5.687l-2.275-2.275 2.307-2.307a30.592 30.592 0 002.276 2.273zm17-26.86a5.744 5.744 0 1111.489 0v3.673a5.744 5.744 0 11-11.489 0zm0 10.549a8.939 8.939 0 0011.486 0 11.283 11.283 0 015.356 7.784 17.626 17.626 0 00-9.972 4.381c-.376.02-.753.034-1.127.034a20.786 20.786 0 01-11.229-3.281 11.205 11.205 0 015.49-8.918zM64.661 80.96a14.476 14.476 0 1114.476-14.476A14.492 14.492 0 0164.661 80.96z"/><path data-name="Path 33" d="M74.081 59.146a4.825 4.825 0 00-6.823 0l-4.439 4.439-.754-.754a4.825 4.825 0 00-6.824 6.824l4.166 4.166a4.825 4.825 0 006.824 0l7.851-7.851a4.83 4.83 0 00-.001-6.824zm-2.275 4.549l-7.851 7.851a1.608 1.608 0 01-2.274 0l-4.166-4.166a1.608 1.608 0 112.274-2.274l1.892 1.892a1.609 1.609 0 002.275 0l5.577-5.577a1.608 1.608 0 012.274 2.274z"/><path data-name="Path 34" d="M25.53 40.246a1.609 1.609 0 00-1.608-1.608 1.608 1.608 0 101.61 1.608z"/><path data-name="Path 35" d="M69.326 16.461a1.609 1.609 0 00-1.608-1.608 1.608 1.608 0 101.61 1.608z"/></g></g></g></svg><svg viewBox="0 0 512 512" id="twitter" xmlns="http://www.w3.org/2000/svg"><path d="M512 97.248c-19.04 8.352-39.328 13.888-60.48 16.576 21.76-12.992 38.368-33.408 46.176-58.016-20.288 12.096-42.688 20.64-66.56 25.408C411.872 60.704 384.416 48 354.464 48c-58.112 0-104.896 47.168-104.896 104.992 0 8.32.704 16.32 2.432 23.936-87.264-4.256-164.48-46.08-216.352-109.792-9.056 15.712-14.368 33.696-14.368 53.056 0 36.352 18.72 68.576 46.624 87.232-16.864-.32-33.408-5.216-47.424-12.928v1.152c0 51.008 36.384 93.376 84.096 103.136-8.544 2.336-17.856 3.456-27.52 3.456-6.72 0-13.504-.384-19.872-1.792 13.6 41.568 52.192 72.128 98.08 73.12-35.712 27.936-81.056 44.768-130.144 44.768-8.608 0-16.864-.384-25.12-1.44C46.496 446.88 101.6 464 161.024 464c193.152 0 298.752-160 298.752-298.688 0-4.64-.16-9.12-.384-13.568 20.832-14.784 38.336-33.248 52.608-54.496z" data-original="#000000" class="bbactive-path" data-old_color="#000000" fill="currentColor"/></svg><svg fill="currentColor" viewBox="0 0 96 96" id="user" xmlns="http://www.w3.org/2000/svg"><path d="M48 60c11.594 0 22.835 1.93 30.842 5.294C85.694 68.174 88 71.19 88 72.125V80c0 2.206-1.794 4-4 4H12c-2.206 0-4-1.794-4-4v-7.906c0-.932 2.305-3.941 9.152-6.812C25.156 61.925 36.4 60 48 60m0-8C21.49 52 0 61.044 0 72.094V80c0 6.63 5.37 12 12 12h72c6.63 0 12-5.37 12-12v-7.875C96 61.075 74.51 52 48 52z"/><path d="M48 0C34.745 0 24 10.745 24 24v12c0 13.255 10.745 24 24 24s24-10.745 24-24V24C72 10.745 61.255 0 48 0zm16 36c0 8.836-7.163 16-16 16-8.836 0-16-7.164-16-16V24c0-8.836 7.164-16 16-16 8.837 0 16 7.164 16 16v12z"/></svg><svg fill="none" stroke="currentColor" stroke-linecap="round" stroke-linejoin="round" stroke-width="2" viewBox="0 0 24 24" id="users" xmlns="http://www.w3.org/2000/svg"><path d="M17 21v-2a4 4 0 00-4-4H5a4 4 0 00-4 4v2"/><circle cx="9" cy="7" r="4"/><path d="M23 21v-2a4 4 0 00-3-3.87M16 3.13a4 4 0 010 7.75"/></svg><svg fill="none" stroke="currentColor" stroke-linecap="round" stroke-linejoin="round" stroke-width="2" viewBox="0 0 24 24" id="watch" xmlns="http://www.w3.org/2000/svg"><circle cx="12" cy="12" r="7"/><path d="M12 9v3l1.5 1.5M16.51 17.35l-.35 3.83a2 2 0 01-2 1.82H9.83a2 2 0 01-2-1.82l-.35-3.83m.01-10.7l.35-3.83A2 2 0 019.83 1h4.35a2 2 0 012 1.82l.35 3.83"/></svg></svg>