<svg xmlns="http://www.w3.org/2000/svg" xmlns:xlink="http://www.w3.org/1999/xlink" width="87" height="89" viewBox="0 0 87 89">
  <defs>
    <clipPath id="clip-charity">
      <rect width="87" height="89"/>
    </clipPath>
  </defs>
  <g id="charity" clip-path="url(#clip-charity)">
    <g id="Group_42" data-name="Group 42" transform="translate(1.49 -23.041)">
      <g id="Group_37" data-name="Group 37" transform="translate(20.095 31.992)">
        <g id="Group_36" data-name="Group 36" transform="translate(0 0)">
          <path id="Path_36" data-name="Path 36" d="M139.543,35.136c-4.253-4.007-11.54-4.922-18.132,1.671-6.583-6.586-13.88-5.678-18.132-1.674a12.009,12.009,0,0,0-.265,17.24l18.4,18.4,18.4-18.4A12.009,12.009,0,0,0,139.543,35.136Zm-2.02,14.952L121.411,66.2,105.3,50.092a8.771,8.771,0,0,1,.2-12.6,8.417,8.417,0,0,1,5.823-2.262c4.628,0,6.709,2.766,10.092,6.15,3.293-3.293,5.413-6.15,10.092-6.15a8.443,8.443,0,0,1,5.826,2.259A8.77,8.77,0,0,1,137.523,50.089Z" transform="translate(-99.496 -31.992)" fill="currentColor"/>
        </g>
      </g>
      <g id="Group_39" data-name="Group 39" transform="translate(48.473 35.227)">
        <g id="Group_38" data-name="Group 38">
          <path id="Path_37" data-name="Path 37" d="M270.024,48.009a5.5,5.5,0,0,0-5.494,4.964l-2.046,20.2a5.188,5.188,0,0,0-2.592,1.39L243.571,89.757A10.974,10.974,0,0,0,240,97.772v18.1h19.389v-8.518a4.892,4.892,0,0,1,1.554-3.545l12.264-12.377a8.038,8.038,0,0,0,2.34-5.688V53.532A5.53,5.53,0,0,0,270.024,48.009Zm2.291,37.735a4.825,4.825,0,0,1-1.406,3.416L258.685,101.5a8.092,8.092,0,0,0-2.527,5.856v5.287H243.232V97.791a7.72,7.72,0,0,1,2.53-5.649l16.374-15.25a2.137,2.137,0,0,1,2.97,0,2.093,2.093,0,0,1,.617,1.487,2.068,2.068,0,0,1-.562,1.432L252.555,91.244l2.172,2.391,12.664-11.488a5.328,5.328,0,0,0,0-7.539,5.156,5.156,0,0,0-1.69-1.141L267.743,53.3a2.292,2.292,0,0,1,4.573.229V85.744Z" transform="translate(-240 -48.009)" fill="currentColor"/>
        </g>
      </g>
      <g id="Group_41" data-name="Group 41" transform="translate(0 35.227)">
        <g id="Group_40" data-name="Group 40">
          <path id="Path_38" data-name="Path 38" d="M31.976,89.757,15.654,74.563a5.163,5.163,0,0,0-2.592-1.39l-2.046-20.2A5.522,5.522,0,0,0,0,53.532V85.744a8.025,8.025,0,0,0,2.34,5.684L14.6,103.8a4.9,4.9,0,0,1,1.554,3.548v8.518H35.547v-18.1A10.968,10.968,0,0,0,31.976,89.757Zm.339,22.883H19.389v-5.287a8.1,8.1,0,0,0-2.527-5.856L4.637,89.16a4.825,4.825,0,0,1-1.406-3.416V53.532A2.292,2.292,0,0,1,7.8,53.3L9.843,73.461a5.33,5.33,0,0,0-1.687,8.68L20.821,93.629l2.172-2.391L10.386,79.8a2.048,2.048,0,0,1-.562-1.432,2.088,2.088,0,0,1,.617-1.487,2.137,2.137,0,0,1,2.97,0l16.374,15.25a7.72,7.72,0,0,1,2.53,5.649V112.64Z" transform="translate(0 -48.009)" fill="currentColor"/>
        </g>
      </g>
    </g>
  </g>
</svg>
