<svg xmlns="http://www.w3.org/2000/svg" xmlns:xlink="http://www.w3.org/1999/xlink" width="87" height="89" viewBox="0 0 87 89">
  <defs>
    <clipPath id="clip-iPhone_13_12_Pro_Max_1">
      <rect width="87" height="89"/>
    </clipPath>
  </defs>
  <g id="iPhone_13_12_Pro_Max_1" data-name="iPhone 13, 12 Pro Max – 1" clip-path="url(#clip-iPhone_13_12_Pro_Max_1)">
    <g id="Group_32" data-name="Group 32" transform="translate(-5 -4)">
      <g id="_12_Corporate_Network_Profile_Company_Profile_Computer_Reference_Profile" data-name="12 Corporate Network Profile, Company Profile, Computer Reference Profile" transform="translate(5 4)">
        <path id="Path_31" data-name="Path 31" d="M83,10.367H78.226v3.184H83a4.776,4.776,0,0,1,4.776,4.776V72.45A4.776,4.776,0,0,1,83,77.226H12.959A4.776,4.776,0,0,1,8.184,72.45V18.327a4.776,4.776,0,0,1,4.776-4.776h4.776V10.367H12.959A7.959,7.959,0,0,0,5,18.327V72.45a7.959,7.959,0,0,0,7.959,7.959H38.684a15.919,15.919,0,0,1-2.69,9.551H32.062v3.184H63.9V89.961H59.967a15.919,15.919,0,0,1-2.69-9.551H83a7.959,7.959,0,0,0,7.959-7.959V18.327A7.959,7.959,0,0,0,83,10.367ZM56.29,89.961H39.671A18.163,18.163,0,0,0,41.9,80.41H54.061A18.163,18.163,0,0,0,56.29,89.961ZM17.735,19.919V16.735H12.959a1.592,1.592,0,0,0-1.592,1.592V66.083a1.592,1.592,0,0,0,1.592,1.592H83a1.592,1.592,0,0,0,1.592-1.592V18.327A1.592,1.592,0,0,0,83,16.735H78.226v3.184H81.41V64.491H75.042V5.592A1.592,1.592,0,0,0,73.45,4H22.511a1.592,1.592,0,0,0-1.592,1.592v58.9H14.551V19.919ZM24.1,7.184H71.859V64.491H24.1ZM41.613,74.042V70.859H54.348v3.184ZM47.98,26.286a6.367,6.367,0,1,0-6.367-6.367A6.367,6.367,0,0,0,47.98,26.286Zm0-9.551A3.184,3.184,0,1,1,44.8,19.919,3.184,3.184,0,0,1,47.98,16.735ZM41.613,39.021H38.429V37.429a9.551,9.551,0,1,1,19.1,0v1.592H54.348V37.429a6.367,6.367,0,1,0-12.735,0ZM30.47,45.389H65.491v3.184H30.47Zm0,9.551H65.491v3.184H30.47Z" transform="translate(-5 -4)" fill="#ff9500"/>
      </g>
    </g>
  </g>
</svg>
