<?xml version="1.0" encoding="UTF-8"?>
<svg id="SVGDoc" width="24" height="24" xmlns="http://www.w3.org/2000/svg" version="1.1" xmlns:xlink="http://www.w3.org/1999/xlink" xmlns:avocode="https://avocode.com/" viewBox="0 0 24 24"><defs></defs><desc>Generated with Avocode.</desc><g><g><title>Многоугольник 3</title><path d="M19.01577,21.18059c-1.51358,-0.12216 -2.6659,0.46514 -3.45678,1.76156c-0.79079,1.29643 -1.76268,1.45022 -2.91538,0.46169c-1.1528,-0.98853 -2.43006,-1.19118 -3.83186,-0.60703c-1.40181,0.58416 -2.27852,0.13719 -2.63004,-1.34028c-0.35162,-1.47747 -1.266,-2.39177 -2.74334,-2.74352c-1.47724,-0.35144 -1.92394,-1.22815 -1.3401,-2.63013c0.58393,-1.4023 0.38166,-2.6793 -0.60682,-3.83228c-0.98858,-1.15266 -0.83466,-2.1249 0.46167,-2.91579c1.29642,-0.79089 1.88351,-1.94323 1.76134,-3.45704c-0.12217,-1.5138 0.57364,-2.20947 2.08721,-2.08763c1.51367,0.12216 2.6659,-0.46482 3.45678,-1.76125c0.79088,-1.29643 1.76268,-1.45053 2.91548,-0.462c1.15271,0.98853 2.43006,1.19118 3.83186,0.60703c1.40181,-0.58385 2.27842,-0.13719 2.63004,1.34028c0.35152,1.47747 1.266,2.39177 2.74324,2.74352c1.47734,0.35175 1.92404,1.22846 1.3401,2.63044c-0.58393,1.40198 -0.38157,2.6793 0.60692,3.83196c0.98848,1.15328 0.83456,2.1249 -0.46177,2.9161c-1.29633,0.79089 -1.88341,1.94292 -1.76134,3.45672c0.12217,1.51412 -0.57354,2.20978 -2.08721,2.08763z" fill="#ff9600" fill-opacity="1"></path></g></g></svg>