<svg xmlns="http://www.w3.org/2000/svg" xmlns:xlink="http://www.w3.org/1999/xlink" width="129" height="169" viewBox="0 0 129 169" fill="currentColor">
  <defs>
    <clipPath id="clip-iPhone_13_12_Pro_Max_1">
      <rect width="129" height="169"/>
    </clipPath>
  </defs>
  <g id="iPhone_13_12_Pro_Max_1" data-name="iPhone 13, 12 Pro Max – 1" clip-path="url(#clip-iPhone_13_12_Pro_Max_1)">
    <g id="Group_31" data-name="Group 31" transform="translate(-11.125 -5.005)">
      <g id="Group_30" data-name="Group 30" transform="translate(11.125 5.005)">
        <g id="LINE_357_" transform="translate(0 157.994)">
          <g id="Group_1" data-name="Group 1">
            <path id="Path_1" data-name="Path 1" d="M32.4,63.067H14.164a3.039,3.039,0,0,1,0-6.079H32.4a3.039,3.039,0,1,1,0,6.079Z" transform="translate(-11.125 -56.988)"/>
          </g>
        </g>
        <g id="LINE_358_" transform="translate(102.574 158.019)">
          <g id="Group_2" data-name="Group 2">
            <path id="Path_2" data-name="Path 2" d="M66.149,63.075H47.913a3.039,3.039,0,1,1,0-6.079H66.149a3.039,3.039,0,0,1,0,6.079Z" transform="translate(-44.874 -56.996)"/>
          </g>
        </g>
        <g id="LWPOLYLINE_85_" transform="translate(119.189 137.012)">
          <g id="Group_3" data-name="Group 3">
            <path id="Path_3" data-name="Path 3" d="M55,77.17a3.041,3.041,0,0,1-3.03-2.848C51.5,66.9,51.05,60.208,50.357,53.439a3.041,3.041,0,0,1,6.051-.62c.7,6.881,1.155,13.634,1.629,21.117A3.045,3.045,0,0,1,55.2,77.164C55.128,77.167,55.065,77.17,55,77.17Z" transform="translate(-50.341 -50.084)"/>
          </g>
        </g>
        <g id="LWPOLYLINE_86_" transform="translate(0 137.017)">
          <g id="Group_4" data-name="Group 4">
            <path id="Path_4" data-name="Path 4" d="M14.167,77.142c-.064,0-.128,0-.195-.006a3.04,3.04,0,0,1-2.842-3.225c.45-7.148.912-14.142,1.629-21.1a3.039,3.039,0,0,1,6.045.623c-.7,6.845-1.164,13.771-1.608,20.856A3.037,3.037,0,0,1,14.167,77.142Z" transform="translate(-11.125 -50.086)"/>
          </g>
        </g>
        <g id="LINE_359_" transform="translate(23.815 12.497)">
          <g id="Group_5" data-name="Group 5">
            <path id="Path_5" data-name="Path 5" d="M32.1,42.752a3.038,3.038,0,0,1-2.854-1.994L19.147,13.2a3.039,3.039,0,1,1,5.708-2.091l10.1,27.558a3.038,3.038,0,0,1-1.808,3.9,3.072,3.072,0,0,1-1.046.185Z" transform="translate(-18.961 -9.116)"/>
          </g>
        </g>
        <g id="ARC_230_" transform="translate(33.917 34.939)">
          <g id="Group_6" data-name="Group 6">
            <path id="Path_6" data-name="Path 6" d="M25.326,27.694A3.04,3.04,0,0,1,24.2,21.831a74.188,74.188,0,0,1,55.228,0,3.039,3.039,0,1,1-2.255,5.644,68.138,68.138,0,0,0-50.72,0,3.008,3.008,0,0,1-1.125.219Z" transform="translate(-22.284 -16.5)"/>
          </g>
        </g>
        <g id="LINE_360_" transform="translate(86.89 12.494)">
          <g id="Group_7" data-name="Group 7" transform="translate(0)">
            <path id="Path_7" data-name="Path 7" d="M42.754,42.753A3.047,3.047,0,0,1,39.9,38.665L50.006,11.108a3.038,3.038,0,1,1,5.7,2.091l-10.1,27.558A3.042,3.042,0,0,1,42.754,42.753Z" transform="translate(-39.714 -9.115)"/>
          </g>
        </g>
        <g id="LWPOLYLINE_87_" transform="translate(96.488 43.116)">
          <g id="Group_8" data-name="Group 8">
            <path id="Path_8" data-name="Path 8" d="M51.359,61.97a3.035,3.035,0,0,1-2.991-2.529c-.787-4.6-1.2-9.319-1.608-13.878-.7-7.86-1.352-15.285-3.729-22.369A3.041,3.041,0,0,1,48.8,21.262c2.6,7.765,3.325,15.9,4.018,23.764.4,4.437.8,9.027,1.544,13.391a3.035,3.035,0,0,1-2.483,3.507,2.742,2.742,0,0,1-.517.046Z" transform="translate(-42.872 -19.19)"/>
          </g>
        </g>
        <g id="LWPOLYLINE_88_" transform="translate(18.873 43.115)">
          <g id="Group_9" data-name="Group 9">
            <path id="Path_9" data-name="Path 9" d="M20.375,61.971a2.9,2.9,0,0,1-.511-.043,3.039,3.039,0,0,1-2.486-3.5c.742-4.368,1.152-8.951,1.547-13.385.7-7.86,1.428-15.99,4.012-23.764a3.039,3.039,0,0,1,5.769,1.915C26.347,30.295,25.682,37.72,24.98,45.58c-.407,4.553-.827,9.258-1.611,13.862A3.041,3.041,0,0,1,20.375,61.971Z" transform="translate(-17.335 -19.19)"/>
          </g>
        </g>
        <g id="ARC_231_" transform="translate(36.783 46.14)">
          <g id="Group_10" data-name="Group 10">
            <path id="Path_10" data-name="Path 10" d="M26.262,41.2a3.04,3.04,0,0,1-.313-6.063A96.734,96.734,0,0,0,67.482,20.658a3.039,3.039,0,1,1,3.258,5.13A102.85,102.85,0,0,1,26.585,41.176a2.3,2.3,0,0,1-.322.021Z" transform="translate(-23.227 -20.186)"/>
          </g>
        </g>
        <g id="ARC_232_" transform="translate(21.027 60.972)">
          <g id="Group_11" data-name="Group 11">
            <path id="Path_11" data-name="Path 11" d="M29.41,31.626a75.918,75.918,0,0,1-8.677-.5,3.038,3.038,0,0,1,.7-6.036,70.246,70.246,0,0,0,15.1.094,3.04,3.04,0,0,1,.62,6.048A76.584,76.584,0,0,1,29.41,31.626Z" transform="translate(-18.043 -25.066)"/>
          </g>
        </g>
        <g id="LWPOLYLINE_89_" transform="translate(36.092 63.484)">
          <g id="Group_12" data-name="Group 12">
            <path id="Path_12" data-name="Path 12" d="M26.039,35.326A3.04,3.04,0,0,1,23,32.287a27.278,27.278,0,0,1,.76-6.395l5.927,1.356-.018.079a21.012,21.012,0,0,0-.59,4.96,3.04,3.04,0,0,1-3.039,3.039Z" transform="translate(-23 -25.892)"/>
          </g>
        </g>
        <g id="ARC_233_" transform="translate(84.007 58.965)">
          <g id="Group_13" data-name="Group 13" transform="translate(0)">
            <path id="Path_13" data-name="Path 13" d="M42.516,38.358a3.04,3.04,0,0,1-3.039-3.036,41.492,41.492,0,0,0-.663-7.331A3.041,3.041,0,0,1,44.8,26.909a47.856,47.856,0,0,1,.757,8.407,3.039,3.039,0,0,1-3.039,3.042Z" transform="translate(-38.765 -24.405)"/>
          </g>
        </g>
        <g id="ARC_234_" transform="translate(12.868 79.815)">
          <g id="Group_14" data-name="Group 14">
            <path id="Path_14" data-name="Path 14" d="M18.4,58.709a3.04,3.04,0,0,1-2.839-4.124,118.877,118.877,0,0,0,5.851-20.832,3.04,3.04,0,0,1,5.978,1.1,125.026,125.026,0,0,1-6.152,21.9A3.037,3.037,0,0,1,18.4,58.709Z" transform="translate(-15.359 -31.265)"/>
          </g>
        </g>
        <g id="ARC_235_" transform="translate(101.939 79.817)">
          <g id="Group_15" data-name="Group 15">
            <path id="Path_15" data-name="Path 15" d="M53.707,58.708a3.044,3.044,0,0,1-2.839-1.954,124.607,124.607,0,0,1-6.152-21.9,3.04,3.04,0,0,1,5.978-1.1,118.918,118.918,0,0,0,5.851,20.828,3.038,3.038,0,0,1-2.839,4.127Z" transform="translate(-44.665 -31.266)"/>
          </g>
        </g>
        <g id="LINE_361_" transform="translate(64.368 107.163)">
          <g id="Group_16" data-name="Group 16" transform="translate(0)">
            <path id="Path_16" data-name="Path 16" d="M35.342,78.448a3.037,3.037,0,0,1-2.735-4.358L48.1,41.982a3.039,3.039,0,1,1,5.474,2.641L38.08,76.731A3.043,3.043,0,0,1,35.342,78.448Z" transform="translate(-32.303 -40.263)"/>
          </g>
        </g>
        <g id="LINE_362_" transform="translate(40.953 107.166)">
          <g id="Group_17" data-name="Group 17">
            <path id="Path_17" data-name="Path 17" d="M43.129,78.446a3.036,3.036,0,0,1-2.738-1.717L24.9,44.622a3.039,3.039,0,0,1,5.474-2.641L45.864,74.088a3.037,3.037,0,0,1-2.735,4.358Z" transform="translate(-24.599 -40.264)"/>
          </g>
        </g>
        <g id="ARC_236_" transform="translate(83.627 112.667)">
          <g id="Group_18" data-name="Group 18">
            <path id="Path_18" data-name="Path 18" d="M58.791,51.362a3.062,3.062,0,0,1-.717-.085,164.517,164.517,0,0,0-16.8-3.149,3.039,3.039,0,1,1,.808-6.024,170.747,170.747,0,0,1,17.421,3.264,3.04,3.04,0,0,1-.714,5.994Z" transform="translate(-38.64 -42.074)"/>
          </g>
        </g>
        <g id="ARC_237_" transform="translate(20.074 112.671)">
          <g id="Group_19" data-name="Group 19">
            <path id="Path_19" data-name="Path 19" d="M20.767,51.359a3.041,3.041,0,0,1-.711-6A171.27,171.27,0,0,1,37.477,42.1a3.039,3.039,0,0,1,.808,6.024,164.884,164.884,0,0,0-16.8,3.149A2.815,2.815,0,0,1,20.767,51.359Z" transform="translate(-17.73 -42.076)"/>
          </g>
        </g>
        <g id="LINE_363_" transform="translate(79.855 107.164)">
          <g id="Group_20" data-name="Group 20" transform="translate(0)">
            <path id="Path_20" data-name="Path 20" d="M53.116,64.877a3.027,3.027,0,0,1-2.51-1.325L37.931,45.015a3.039,3.039,0,0,1,5.018-3.431L55.623,60.121a3.041,3.041,0,0,1-2.507,4.757Z" transform="translate(-37.399 -40.264)"/>
          </g>
        </g>
        <g id="LINE_364_" transform="translate(83.185 125.699)">
          <g id="Group_21" data-name="Group 21" transform="translate(0)">
            <path id="Path_21" data-name="Path 21" d="M41.532,54.784A3.039,3.039,0,0,1,40.8,48.8l9.343-2.343a3.039,3.039,0,0,1,1.477,5.9l-9.343,2.343A3.114,3.114,0,0,1,41.532,54.784Z" transform="translate(-38.494 -46.362)"/>
          </g>
        </g>
        <g id="LINE_365_" transform="translate(28.277 125.697)">
          <g id="Group_22" data-name="Group 22">
            <path id="Path_22" data-name="Path 22" d="M32.815,54.785a3.1,3.1,0,0,1-.742-.091L22.73,52.35a3.039,3.039,0,0,1,1.477-5.9L33.55,48.8a3.039,3.039,0,0,1-.736,5.987Z" transform="translate(-20.429 -46.362)"/>
          </g>
        </g>
        <g id="LINE_366_" transform="translate(28.279 107.166)">
          <g id="Group_23" data-name="Group 23">
            <path id="Path_23" data-name="Path 23" d="M23.465,64.876a3.037,3.037,0,0,1-2.5-4.753L33.634,41.585a3.039,3.039,0,1,1,5.018,3.431L25.978,63.554A3.045,3.045,0,0,1,23.465,64.876Z" transform="translate(-20.429 -40.264)"/>
          </g>
        </g>
        <g id="ARC_238_" transform="translate(1.619 115.874)">
          <g id="Group_24" data-name="Group 24">
            <path id="Path_24" data-name="Path 24" d="M14.7,70.351a2.817,2.817,0,0,1-.316-.015A3.036,3.036,0,0,1,11.674,67,27.4,27.4,0,0,1,32.436,43.219a3.04,3.04,0,1,1,1.435,5.908,21.317,21.317,0,0,0-16.148,18.5A3.039,3.039,0,0,1,14.7,70.351Z" transform="translate(-11.658 -43.13)"/>
          </g>
        </g>
        <g id="ARC_239_" transform="translate(100.734 115.874)">
          <g id="Group_25" data-name="Group 25">
            <path id="Path_25" data-name="Path 25" d="M65.761,70.352a3.041,3.041,0,0,1-3.021-2.726,21.31,21.31,0,0,0-16.148-18.5,3.04,3.04,0,0,1,1.432-5.908A27.409,27.409,0,0,1,68.788,67a3.038,3.038,0,0,1-2.714,3.334c-.106.009-.21.015-.313.015Z" transform="translate(-44.269 -43.129)"/>
          </g>
        </g>
        <g id="ARC_240_" transform="translate(12.868 95.838)">
          <g id="Group_26" data-name="Group 26">
            <path id="Path_26" data-name="Path 26" d="M18.4,47.959a3.041,3.041,0,0,1-1.03-5.9,143.582,143.582,0,0,1,19.3-5.453,3.039,3.039,0,0,1,1.24,5.951,138.088,138.088,0,0,0-18.485,5.222,2.955,2.955,0,0,1-1.027.182Z" transform="translate(-15.359 -36.537)"/>
          </g>
        </g>
        <g id="ARC_241_" transform="translate(89.047 95.838)">
          <g id="Group_27" data-name="Group 27">
            <path id="Path_27" data-name="Path 27" d="M62.357,47.959a3,3,0,0,1-1.03-.182,137.568,137.568,0,0,0-18.485-5.222A3.04,3.04,0,0,1,44.085,36.6,144.259,144.259,0,0,1,63.39,42.056a3.041,3.041,0,0,1-1.033,5.9Z" transform="translate(-40.423 -36.537)"/>
          </g>
        </g>
        <g id="LWPOLYLINE_90_" transform="translate(36.089 66.836)">
          <g id="Group_28" data-name="Group 28">
            <path id="Path_28" data-name="Path 28" d="M50.183,67.23a21.748,21.748,0,0,1-13.4-4.7C28.242,55.917,23.218,44.088,23,30.083a3.04,3.04,0,1,1,6.079-.1c.088,5.747,1.383,19.959,11.425,27.74,7.31,5.665,16.9,4.209,23.315-3.538,6.264-7.565,7.7-17.336,7.808-24.2A3.04,3.04,0,0,1,74.665,27h.049A3.039,3.039,0,0,1,77.7,30.083c-.122,7.841-1.818,19.06-9.2,27.986C63.51,64.1,56.842,67.23,50.183,67.23Z" transform="translate(-22.999 -26.995)"/>
          </g>
        </g>
        <g id="LWPOLYLINE_91_" transform="translate(23.817)">
          <g id="Group_29" data-name="Group 29">
            <path id="Path_29" data-name="Path 29" d="M22,23.576a3.039,3.039,0,0,1-1.729-5.541C31.446,10.331,42.764,6,53.909,5.167,66,4.255,78.491,7.194,90.032,13.647c2.462,1.377,4.744,2.924,6.869,4.389a3.038,3.038,0,1,1-3.45,5c-2.009-1.386-4.158-2.842-6.389-4.091a58.3,58.3,0,0,0-32.7-7.723C44.305,11.981,34,15.954,23.723,23.038A3,3,0,0,1,22,23.576Z" transform="translate(-18.961 -5.005)"/>
          </g>
        </g>
        <g id="LWPOLYLINE_42_" transform="translate(54.328 10.612)">
          <path id="Path_30" data-name="Path 30" d="M41.157,14.575h6.076v6.079H41.157v6.079H35.079V20.653H29V14.575h6.079V8.5h6.079Z" transform="translate(-29 -8.496)"/>
        </g>
      </g>
    </g>
  </g>
</svg>
