<svg xmlns="http://www.w3.org/2000/svg" xmlns:xlink="http://www.w3.org/1999/xlink" width="87" height="89" viewBox="0 0 87 89">
  <defs>
    <clipPath id="clip-search2">
      <rect width="87" height="89"/>
    </clipPath>
  </defs>
  <g id="search2" clip-path="url(#clip-search2)">
    <g id="Group_35" data-name="Group 35" transform="translate(0 1.819)">
      <g id="Group_34" data-name="Group 34" transform="translate(0 0.005)">
        <g id="Group_33" data-name="Group 33" transform="translate(0 0)">
          <path id="Path_32" data-name="Path 32" d="M75.069,50.367a30.56,30.56,0,1,0-53.837-19.8q0,.372.009.742a1.608,1.608,0,1,0,3.216-.078q-.008-.331-.008-.664A27.343,27.343,0,1,1,72.264,48.691a17.557,17.557,0,0,0-3.3-1.188A24.263,24.263,0,0,0,75.92,30.565,23.884,23.884,0,0,0,73.387,19.8a1.608,1.608,0,0,0-2.878,1.438A20.694,20.694,0,0,1,72.7,30.565a21.024,21.024,0,0,1-6.75,15.381,14.5,14.5,0,0,0-6.343-9.168A8.9,8.9,0,0,0,60.754,32.4V28.727a8.961,8.961,0,1,0-17.923,0V32.4a8.9,8.9,0,0,0,1.144,4.373,14.4,14.4,0,0,0-6.344,9.157A20.907,20.907,0,0,1,61.125,11.85a1.608,1.608,0,1,0,1.438-2.878,23.88,23.88,0,0,0-10.77-2.534,24.126,24.126,0,0,0-1.7,48.193A17.672,17.672,0,0,0,48.4,57.7,27.369,27.369,0,0,1,28.137,44.285,1.608,1.608,0,0,0,25.356,45.9a30.648,30.648,0,0,0,1.689,2.589L24.3,51.233a4.846,4.846,0,0,0-5.492.943l-17.4,17.4a4.831,4.831,0,0,0,0,6.824L5.96,80.948a4.835,4.835,0,0,0,6.824,0l17.4-17.4a4.846,4.846,0,0,0,.943-5.492l2.743-2.742a30.5,30.5,0,0,0,13.523,5.495A17.694,17.694,0,1,0,75.069,50.367ZM27.909,61.274l-17.4,17.4a1.618,1.618,0,0,1-2.275,0L3.685,74.124a1.61,1.61,0,0,1,0-2.275l17.4-17.4a1.618,1.618,0,0,1,2.275,0L27.909,59a1.618,1.618,0,0,1,0,2.275Zm1.137-5.687-2.275-2.275,2.307-2.307a30.592,30.592,0,0,0,2.276,2.273Zm17-26.86a5.744,5.744,0,1,1,11.489,0V32.4a5.744,5.744,0,1,1-11.489,0Zm0,10.549a8.939,8.939,0,0,0,11.486,0,11.283,11.283,0,0,1,5.356,7.784,17.626,17.626,0,0,0-9.972,4.381c-.376.02-.753.034-1.127.034A20.786,20.786,0,0,1,40.56,48.194,11.205,11.205,0,0,1,46.05,39.276ZM64.661,79.141A14.476,14.476,0,1,1,79.137,64.665,14.492,14.492,0,0,1,64.661,79.141Z" transform="translate(0 -0.005)" fill="currentColor"/>
          <path id="Path_33" data-name="Path 33" d="M354.922,349.016a4.825,4.825,0,0,0-6.823,0l-4.439,4.439-.754-.754a4.825,4.825,0,0,0-6.824,6.824l4.166,4.166a4.825,4.825,0,0,0,6.824,0l7.851-7.851A4.83,4.83,0,0,0,354.922,349.016Zm-2.275,4.549-7.851,7.851a1.608,1.608,0,0,1-2.274,0l-4.166-4.166a1.608,1.608,0,1,1,2.274-2.274l1.892,1.892a1.609,1.609,0,0,0,2.275,0l5.577-5.577a1.608,1.608,0,0,1,2.274,2.274Z" transform="translate(-280.841 -291.694)" fill="currentColor"/>
          <path id="Path_34" data-name="Path 34" d="M141.942,230.493a1.609,1.609,0,0,0-1.608-1.608h0a1.608,1.608,0,1,0,1.61,1.608Z" transform="translate(-116.412 -192.071)" fill="currentColor"/>
          <path id="Path_35" data-name="Path 35" d="M414.228,82.618a1.609,1.609,0,0,0-1.608-1.608h0a1.608,1.608,0,1,0,1.61,1.608Z" transform="translate(-344.902 -67.981)" fill="currentColor"/>
        </g>
      </g>
    </g>
  </g>
</svg>
